<svg xmlns="http://www.w3.org/2000/svg" viewBox="0 0 256 256"><defs><style>.cls-1{fill:#18d1b0;}.cls-2{fill:#fff;}</style></defs><g id="Layer_2" data-name="Layer 2"><g id="logo"><circle id="bg" class="cls-1" cx="128" cy="128" r="128"/><path id="top" class="cls-2" d="M123.51,40.84A88.34,88.34,0,0,0,61.83,188a.91.91,0,0,0,1.09.19,153.37,153.37,0,0,1,131.77-2.61.91.91,0,0,0,1.08-.25,88,88,0,0,0,20.16-52.58C218,81.07,175.16,38.45,123.51,40.84ZM188.14,97q-2.82,4.42-6.39,9.65-5,7.28-10.48,15.17T160,137.71q-4.71,6.49-9,12.2a3.31,3.31,0,0,1-3,1.32,158.42,158.42,0,0,0-38.31.63,3.36,3.36,0,0,1-2.93-1.06L62.31,102.13a3.35,3.35,0,0,1,.21-4.72,4.29,4.29,0,0,1,.48-.36L96,76.17a3.34,3.34,0,0,1,4.44.8l26.84,35.09,20.9-33.59a3.33,3.33,0,0,1,4.18-1.3l34.25,14.94a3.34,3.34,0,0,1,1.75,4.39A2.73,2.73,0,0,1,188.14,97Z"/></g></g></svg>