<svg xmlns="http://www.w3.org/2000/svg" viewBox="0 0 510.65 449.76"><defs><style>.cls-1{fill:#fff;}</style></defs><g id="Layer_2" data-name="Layer 2"><g id="Layer_3" data-name="Layer 3"><path class="cls-1" d="M510.65,355.58c-5.51,11.25-10.59,22.75-16.64,33.71-10.11,18.32-20.84,36.31-31.33,54.43-.9,1.55-1.88,3.06-3.27,5.31L200.23,0h5.88c26.94,0,53.88.07,80.83,0,21.4-.07,37.17,9.26,47.81,27.77q84.22,146.48,168.4,293c3.47,6.07,5.05,13.22,7.5,19.87Z"/><path class="cls-1" d="M375.23,449.64H367.9c-91.44,0-182.89-.17-274.33.12-23.43.07-40.3-9.36-51.68-29.86C29.14,397,15.7,374.41,2.58,351.69c-.81-1.4-1.54-2.85-2.58-4.8,2.1-.11,3.67-.25,5.24-.25q152.88,0,305.76-.09c3.6,0,5.57,1,7.39,4.2,17.88,31.3,36,62.48,54,93.7C373.17,445.86,373.94,447.3,375.23,449.64Z"/><path class="cls-1" d="M273.57,273.27H42L157.84,72.79C196.5,139.77,234.83,206.18,273.57,273.27Z"/></g></g></svg>