<svg xmlns="http://www.w3.org/2000/svg" viewBox="0 0 338.32 356.54"><defs><style>.cls-1{fill:#fff;}</style></defs><g id="Layer_2" data-name="Layer 2"><g id="logo"><path class="cls-1" d="M25.86,356.14c-7.81,1.93-13.08-3.48-18.42-8.07C-1.5,340.38-.35,329.9.72,319.74c1.41-13.24,10.43-22.42,18-32.3a53.29,53.29,0,0,1,7.46-7.85c.86-.74,3.44-.84,4.18-.13,11.19,10.63,21.68,22.41,25.4,37.43C61.1,338.45,52.13,356.34,25.86,356.14Z"/><path class="cls-1" d="M338.3,36.09C337.65,18.47,325.88,3.53,308.67.66c-12.08-2-23.05.38-32,9.56-7.32,7.53-14.89,14.8-22.24,22.3-3.7,3.79-7.14,7.83-11.83,13-4.64-5.24-8-9.83-12.18-13.61-9.27-8.46-18-6.55-25-1.15s-12.85,12.14-18.34,19c-6.81,8.53-6.61,16.2.59,24.2,2.62,2.91,6,5.11,10.18,8.56-3.94,3.27-6.55,5.11-8.78,7.33-27,27-54.16,53.77-80.85,81C97,182.43,85.43,194.31,82.32,211.11,79.76,225,70.86,234.18,61.26,243.26,54,250.13,47.18,257.46,40,264.38c-3,2.83-3,4.84-.06,7.74Q53,284.79,65.71,297.93c3.11,3.24,5.23,3.46,8.48.11,9.6-10,19.52-19.6,29.29-29.39,6.37-6.39,13.73-10.91,22.74-12.53a58.07,58.07,0,0,0,27.48-13.58c8.28-7.14,16.71-14.23,24.4-22.23,24.23-25.24,49.32-49.66,74.09-74.38,1.14-1.14,2.38-2.19,4.45-4.07,2.51,2.92,4.61,5.74,7.09,8.18,7.6,7.45,17,8.17,24.82,1.31a181.68,181.68,0,0,0,18.73-18.7c5.94-7,7.49-15.53,0-23.9-2.11-2.36-4.38-4.57-6.6-6.83-4.85-4.9-4.59-4.66,0-9.9,10.35-11.77,23.95-20.49,31.5-35C335.72,50.28,338.59,44.09,338.3,36.09ZM209.44,166.55c-5.55,5.5-10.39,12.92-17.11,15.69s-15.39.9-23.21.93c-16.82.05-33.64,0-51.25,0,1.22-1.42,2-2.4,2.81-3.25q41.16-41.19,82.26-82.43c3.24-3.27,5.06-3.37,8.28,0,10.84,11.26,22,22.21,33.55,33.77C232.75,143.27,221.13,155,209.44,166.55Z"/></g></g></svg>