<svg class="svg-icon" fill="#ffffff" viewBox="0 0 1024 1024" version="1.1" xmlns="http://www.w3.org/2000/svg"><path d="M792.323988 463.708134c0-2.369977 0.38988-4.739954 0.38988-7.105838 0-128.253012-102.205776-232.03775-228.28631-232.03775-90.970898 0-169.105443 54.063313-205.808366 132.197858-15.978926-8.087189-33.935903-12.82305-52.878324-12.82305-58.205657 0-106.743116 43.210128-116.01734 99.643418-69.850881 24.071232-119.769804 90.959641-119.769804 169.709193 0 99.053993 79.122035 179.361017 176.592974 179.558515l545.972742 0 0 0c89.180112-0.397043 161.202449-73.992201 161.202449-164.561963C953.921433 537.50693 881.505124 463.900515 792.323988 463.708134L792.323988 463.708134zM792.323988 463.708134"  /></svg>