<svg xmlns="http://www.w3.org/2000/svg" viewBox="0 0 259.57 298.92"><defs><style>.cls-1{fill:#fff;}</style></defs><g id="Layer_2" data-name="Layer 2"><g id="Layer_2-2" data-name="Layer 2"><path class="cls-1" d="M129.81,298.92Q67.33,262.83,5.05,227c-3.92-2.25-5.06-4.66-5-9q.24-69.48,0-139c0-3.83,1.14-5.87,4.47-7.79Q64.92,36.58,125.16,1.55c3.19-1.85,5.57-2.2,9-.2q60.44,35.22,121.1,70c3.14,1.81,4.3,3.76,4.29,7.41q-.19,70.23,0,140.46c0,3.72-1.31,5.56-4.41,7.34C213.44,250.54,171.8,274.65,129.81,298.92ZM191,141.63c8.93-.12,17.55-1.55,25.41-6.07,17-9.81,17.74-27.71,1.07-38.21-16.83-10.6-34.67-10.73-52.33-2.18-14,6.75-21,24.2-4.54,36.93C169.54,139,180,141.34,191,141.63Zm2.51,11.5c-14.4.06-26.15,3.82-33.58,10-11.85,9.9-11.73,23.49.31,33.1,16.28,13,46.51,11.89,61.77-2.26,10.54-9.79,9.87-23.64-1.64-32.22C211.73,155.33,201.74,153.26,193.51,153.13Z"/><path class="cls-1" d="M210.6,128.42a11.9,11.9,0,0,1-12.32-11.74,12.18,12.18,0,0,1,12-12.14,12,12,0,0,1,12,11.62A11.7,11.7,0,0,1,210.6,128.42Z"/><path class="cls-1" d="M222.3,178.39a11.69,11.69,0,0,1-11.94,12,11.89,11.89,0,0,1-12.08-12,12.18,12.18,0,0,1,11.79-11.89A12,12,0,0,1,222.3,178.39Z"/></g></g></svg>