<svg xmlns="http://www.w3.org/2000/svg" viewBox="0 0 64.81 66.14"><defs><style>.cls-1{fill:#fff;}</style></defs><g id="Layer_1" data-name="Layer 1"><path class="cls-1" d="M50.76,18.31A1.49,1.49,0,0,0,49.7,19c-2.75,4.11-13,20-16.27,27a14.09,14.09,0,0,0,2,15.19,20.32,20.32,0,0,0,15.42,7H51a20.32,20.32,0,0,0,15.42-7A14.09,14.09,0,0,0,68.44,46c-3.28-7-13.54-22.93-16.3-27a1.45,1.45,0,0,0-1.38-.65Zm.16,4.19C54.4,27.8,63,41.34,65.77,47.24a11,11,0,0,1-1.66,12.09A17.45,17.45,0,0,1,51,65.26H50.9a17.41,17.41,0,0,1-13.14-5.93A11,11,0,0,1,36.1,47.24C38.87,41.34,47.45,27.8,50.92,22.5Z" transform="translate(-18.52 -18.3)"/><path class="cls-1" d="M65.47,64.69a1.56,1.56,0,0,0-1.26,1.78,1.54,1.54,0,0,0,1.28,1.36,42.49,42.49,0,0,1,11.4,3.06,9.54,9.54,0,0,1,2.8,1.85A1.86,1.86,0,0,1,80.38,74c0,.42-.36,1.21-1.72,2.13a22.86,22.86,0,0,1-6.24,2.61,82.17,82.17,0,0,1-21.5,2.52,82.09,82.09,0,0,1-21.49-2.52,22.69,22.69,0,0,1-6.22-2.61c-1.36-.92-1.75-1.71-1.75-2.13a1.88,1.88,0,0,1,.65-1.26,8.92,8.92,0,0,1,2.6-1.8A39.58,39.58,0,0,1,35.5,68a1.57,1.57,0,0,0,1.26-1.78,1.5,1.5,0,0,0-1.67-1.35h0A41.89,41.89,0,0,0,23.46,68.1,11.6,11.6,0,0,0,20,70.54,5.25,5.25,0,0,0,18.52,74c0,2,1.36,3.6,3.13,4.79a24.86,24.86,0,0,0,7,3,84.37,84.37,0,0,0,22.25,2.64A84.45,84.45,0,0,0,73.18,81.8a25,25,0,0,0,7-3C82,77.62,83.33,76,83.33,74a5.11,5.11,0,0,0-1.59-3.55A12.33,12.33,0,0,0,78.08,68a44.73,44.73,0,0,0-12.17-3.28,1.62,1.62,0,0,0-.44,0Z" transform="translate(-18.52 -18.3)"/><path class="cls-1" d="M41.26,68.92,41,69a17.09,17.09,0,0,0-4.58,1.43,5.26,5.26,0,0,0-1.52,1.15,2.94,2.94,0,0,0-.73,1.86A3.37,3.37,0,0,0,36.1,76.2a13.8,13.8,0,0,0,3.66,1.38,47.51,47.51,0,0,0,11.16,1.17,47.6,47.6,0,0,0,11.17-1.17,14,14,0,0,0,3.68-1.38,3.35,3.35,0,0,0,1.91-2.79,2.83,2.83,0,0,0-.78-1.88,5.63,5.63,0,0,0-1.57-1.13A17.62,17.62,0,0,0,60.77,69a1.48,1.48,0,0,0-.57,2.9h0A15.24,15.24,0,0,1,64,73a3,3,0,0,1,.67.44c0-.09.07-.07-.39.21a11.72,11.72,0,0,1-2.88,1.06,45.43,45.43,0,0,1-10.45,1.08A45.14,45.14,0,0,1,40.5,74.73a11.94,11.94,0,0,1-2.9-1.06c-.49-.29-.42-.32-.42-.21A2.86,2.86,0,0,1,37.8,73a15.2,15.2,0,0,1,3.78-1.17,1.48,1.48,0,0,0-.32-2.93Z" transform="translate(-18.52 -18.3)"/><path class="cls-1" d="M54.21,34.31a1.46,1.46,0,0,0-1.36,1.57,1.5,1.5,0,0,0,.24.71c2.49,4,5.6,8.93,6.9,11.44a5.89,5.89,0,0,1-.41,6.37A10.25,10.25,0,0,1,53,58.52a1.48,1.48,0,1,0,.58,2.9A13.14,13.14,0,0,0,62,56a9.11,9.11,0,0,0,.55-9.4c-1.45-2.78-4.54-7.64-7-11.62A1.46,1.46,0,0,0,54.21,34.31Z" transform="translate(-18.52 -18.3)"/></g></svg>