<svg xmlns="http://www.w3.org/2000/svg" viewBox="0 0 898.72 750.58"><defs><style>.cls-1{fill:#fff;}</style></defs><g id="Layer_2" data-name="Layer 2"><g id="Layer_3" data-name="Layer 3"><path class="cls-1" d="M428.27.49C189.88,11.5,0,208.25,0,449.36A447.68,447.68,0,0,0,114.52,749a4.65,4.65,0,0,0,5.57,1,779.94,779.94,0,0,1,670.23-13.31,4.66,4.66,0,0,0,5.52-1.26A447.31,447.31,0,0,0,898.34,468C909,205.13,691-11.65,428.27.49ZM757,286.07q-14.31,22.49-32.49,49.07-25.25,37-53.31,77.17t-57.53,80.92q-23.93,33-45.7,62.07A17,17,0,0,1,552.54,562a806.82,806.82,0,0,0-194.89,3.19,17,17,0,0,1-14.88-5.39L117,312.27a17,17,0,0,1,3.48-25.86l168-106.18a17,17,0,0,1,22.62,4.05L447.59,362.74,553.92,191.89a17,17,0,0,1,21.27-6.6l174.21,76A17,17,0,0,1,757,286.07Z"/></g></g></svg>