<svg xmlns="http://www.w3.org/2000/svg" viewBox="0 0 859.35 853.2"><defs><style>.cls-1{fill:#fff;}</style></defs><g id="Layer_2" data-name="Layer 2"><g id="Layer_3" data-name="Layer 3"><path class="cls-1" d="M376,233.92c-12.87-77.6-25.7-155-38.79-233.92H574.56c-13,78.33-25.85,155.71-38.84,233.92Z"/><path class="cls-1" d="M666.64,547.61,859.35,682.93,694.47,853.2l-138-192Z"/><path class="cls-1" d="M0,566.45V333.07c20.08,3,39.35,5.71,58.55,8.8,54.74,8.81,109.42,18.05,164.23,26.48,10.83,1.66,15.48,5,15.29,16.91-.69,43.6-.42,87.21-.15,130.81.06,8.48-1.5,13.57-11.3,15.1-71.54,11.22-143,22.92-214.5,34.41C8.84,566.1,5.47,566.08,0,566.45Z"/><path class="cls-1" d="M356.64,527.6h-77.5V372.74h77.5Z"/><path class="cls-1" d="M526.31,630l-52.5-54.54,106.4-110.54,52.89,55.95Z"/><path class="cls-1" d="M534.34,275v76.16h-157V275Z"/><path class="cls-1" d="M455.12,503.9l-53.89-54c17.94-17.72,35.94-35.48,53.48-52.78l51.92,54.74Z"/></g></g></svg>