<svg width="54" height="66" viewBox="0 0 54 66" fill="none" xmlns="http://www.w3.org/2000/svg">
<path d="M53.7737 1.0186C53.5862 1.80449 53.461 2.65513 53.2154 3.44594C49.2793 13.9993 44.5544 24.0594 38.7296 33.3024C37.765 34.784 36.6842 36.2755 35.5288 37.4932C33.5464 39.551 31.5743 38.8076 31.0367 35.6329C30.5073 32.5975 30.2645 29.4678 29.8472 26.3529C29.6407 24.8303 29.4881 23.2331 27.9607 22.1021C27.2499 22.9323 26.4147 23.6329 25.7662 24.5278C24.4234 26.5314 23.0806 28.5351 21.9245 30.733C17.45 39.0917 12.9796 47.5202 8.30125 56.3862C11.6825 55.2603 13.4297 51.1924 16.6981 51.126C16.8267 51.3252 16.9553 51.5243 17.088 51.7931C16.6597 52.4594 16.356 53.2551 15.7992 53.7222C11.9219 57.3402 7.98652 60.9631 4.05112 64.586C3.21999 65.3564 2.16038 66.216 1.2807 65.1703C0.716368 64.518 0.40993 63.2838 0.348379 62.2389C0.250596 59.587 0.323135 56.8507 0.34164 54.189C0.358752 53.4875 0.317718 52.791 0.517467 52.214C0.771259 51.5625 1.27404 51.17 1.71048 50.6431C2.15032 51.1659 2.87677 51.5945 2.96775 52.1469C3.28239 53.5204 3.31042 54.9881 3.39659 56.4509C3.42531 56.9385 3.51629 57.4908 3.59425 58.8143C5.05816 55.8904 6.26828 53.6179 7.42025 51.3504C11.2463 43.8865 15.0141 36.4275 18.9024 29.0284C20.2206 26.6068 21.7214 24.3097 23.2845 22.0775C23.9829 21.0383 24.8681 20.1935 25.8155 19.4133C27.9388 17.7637 30.1312 18.2784 31.2838 20.9811C32.171 23.1463 32.6635 25.5548 33.156 27.9633C33.5616 29.8891 33.6183 31.8444 33.9569 34.616C35.1458 32.9754 35.9646 31.9961 36.7171 30.8824C41.498 23.7578 45.428 16.0751 49.1672 8.12847C50.103 6.15923 51.0429 4.25966 52.0409 2.35517C52.411 1.69384 52.9679 1.22674 53.4583 0.625238C53.4665 0.764553 53.6492 0.889117 53.7737 1.0186Z" fill="#5E5E5E"/>
</svg>
