<svg xmlns="http://www.w3.org/2000/svg" viewBox="0 0 888.47 693.26"><defs><style>.cls-1{opacity:0.1;}.cls-2{fill:#161616;}.cls-3{fill:#353535;}.cls-4{fill:#3f3f3f;}.cls-5{fill:#5e5e5e;}.cls-6{fill:#111;}.cls-7{fill:gray;}.cls-7,.cls-8{fill-rule:evenodd;}.cls-13,.cls-8{fill:#18d1b0;}.cls-9{fill:#191919;}.cls-10{fill:#ffa471;}.cls-11{fill:#e07f4f;}.cls-12{fill:#5e3828;}.cls-14{fill:#1aad91;}.cls-15{fill:#202020;}.cls-16{fill:#7a4b40;}.cls-17{fill:#ced388;}</style></defs><g id="Layer_2" data-name="Layer 2"><g id="cat"><ellipse id="shadow" class="cls-1" cx="444.23" cy="633.68" rx="444.23" ry="59.57"/><g id="table"><g id="leg1"><rect class="cls-2" x="64.81" y="617.97" width="28.59" height="15.52"/><rect class="cls-3" x="64.81" y="301.34" width="28.59" height="316.63"/><path class="cls-4" d="M82.24,582.12c0,2,1.31,3.69,2.92,3.69h0c1.62,0,2.92-1.66,2.92-3.69V319c0-2-1.3-3.69-2.92-3.69h0c-1.61,0-2.92,1.66-2.92,3.69Z"/></g><g id="leg2"><rect class="cls-2" x="268.68" y="617" width="28.59" height="15.52"/><rect class="cls-3" x="268.68" y="301.34" width="28.59" height="316.63"/><path class="cls-4" d="M286.11,582.12c0,2,1.31,3.69,2.92,3.69h0c1.61,0,2.92-1.66,2.92-3.69V319c0-2-1.31-3.69-2.92-3.69h0c-1.61,0-2.92,1.66-2.92,3.69Z"/></g><g id="leg3"><rect class="cls-2" x="798.76" y="617.97" width="28.59" height="15.52"/><rect class="cls-3" x="798.76" y="301.34" width="28.59" height="316.63"/><path class="cls-4" d="M816.19,582.12c0,2,1.3,3.69,2.91,3.69h0c1.62,0,2.92-1.66,2.92-3.69V319c0-2-1.3-3.69-2.92-3.69h0c-1.61,0-2.91,1.66-2.91,3.69Z"/></g><g id="top"><rect class="cls-2" x="63.27" y="294.78" width="765.29" height="25.12"/><rect class="cls-5" x="41.5" y="283.9" width="810.5" height="16.75"/><rect class="cls-4" x="41.5" y="283.9" width="222.59" height="16.75"/></g></g><g id="laptop"><path class="cls-6" d="M486.17,151l18.91,121.31c.91,5.83-2.66,10.55-8,10.55h-173a7.54,7.54,0,0,1-1.16-.08c-4.89-.61-9.43-5.06-10.42-10.47L290.11,151c-1.08-5.82,2.46-10.54,7.89-10.54H474.68C480.12,140.46,485.26,145.18,486.17,151Z"/><path class="cls-2" d="M517.63,272.31c.89,5.83-2.83,10.55-8.33,10.55H330.63c-5.5,0-10.82-4.72-11.89-10.55L296.42,151c-1.07-5.83,2.61-10.55,8.23-10.55h182.5c5.61,0,10.89,4.72,11.79,10.55Z"/><path class="cls-4" d="M511.19,255.34c.76,4.9-2.95,8.88-8.28,8.88H329.63c-5.33,0-10.38-4-11.28-8.88L299.59,153.16c-.9-4.91,2.77-8.89,8.2-8.89h176.4c5.43,0,10.44,4,11.2,8.89Z"/><path class="cls-2" d="M559.81,276.75a7,7,0,0,1-7.26,6.69H326a7.53,7.53,0,0,1-3-.61,6.65,6.65,0,0,1-4.25-6.08,6.42,6.42,0,0,1,2.12-4.73,7.56,7.56,0,0,1,5.14-2H552.55A7,7,0,0,1,559.81,276.75Z"/><path class="cls-6" d="M394,276.75a6.7,6.7,0,0,1-4.43,6.16,7.73,7.73,0,0,1-2.82.53H326a7.53,7.53,0,0,1-3-.61,9.66,9.66,0,0,1-8.48-9.64v-3.13h72.24A7,7,0,0,1,394,276.75Z"/><g id="Codes"><polygon class="cls-7" points="336.09 174.36 440.79 174.36 439.74 168.4 335.04 168.4 336.09 174.36"/><polygon class="cls-7" points="399.07 185.19 461.15 185.19 460.25 180.1 398.17 180.1 399.07 185.19"/><polygon class="cls-7" points="343.56 195.96 405.56 195.96 404.66 190.86 342.66 190.86 343.56 195.96"/><polygon class="cls-7" points="347.53 218.49 409.54 218.49 408.64 213.4 346.63 213.4 347.53 218.49"/><polygon class="cls-7" points="349.13 227.53 411.13 227.53 410.22 222.37 348.22 222.37 349.13 227.53"/><polygon class="cls-8" points="416.51 227.53 436.1 227.53 435.19 222.37 415.6 222.37 416.51 227.53"/><polygon class="cls-7" points="442.92 227.53 462.51 227.53 461.6 222.37 442.01 222.37 442.92 227.53"/><polygon class="cls-7" points="416.62 218.78 460.97 218.78 460.07 213.69 415.72 213.69 416.62 218.78"/><polygon class="cls-7" points="419.41 195.96 452.85 195.96 451.95 190.86 418.51 190.86 419.41 195.96"/><polygon class="cls-7" points="346.04 185.19 363.98 185.19 363.08 180.1 345.14 180.1 346.04 185.19"/><polygon class="cls-8" points="371.73 185.19 389.67 185.19 388.77 180.1 370.83 180.1 371.73 185.19"/><polygon class="cls-8" points="452.2 174.36 468.21 174.36 467.16 168.4 451.15 168.4 452.2 174.36"/><polygon class="cls-7" points="351.34 240.09 371.15 240.09 370.25 235 350.44 235 351.34 240.09"/><polygon class="cls-8" points="377.75 240.09 397.56 240.09 396.66 235 376.85 235 377.75 240.09"/><polygon class="cls-7" points="406.24 240.09 438.32 240.09 437.42 235 405.34 235 406.24 240.09"/></g></g><g id="sit"><g id="down"><g id="feet"><polygon class="cls-9" points="597.09 603.3 575.93 603.3 574.13 568.55 595.96 568.55 597.09 603.3"/><path class="cls-6" d="M529.32,620.1a4.78,4.78,0,0,0,4.61,4.94h62.4c3.25,0,5.88-3.17,5.88-7.08V596a4.78,4.78,0,0,0-4.61-4.94H574.89a4.5,4.5,0,0,0-3.45,1.65l-4.86,5.86c-5,6.07-11.87,9.47-19,9.47h-8.26c-5.53,0-10,5.4-10,12.05Z"/></g><path class="cls-6" d="M599.17,577.23l-28.8,1.82q-1.3-5.49-2.57-11C555.91,516.15,537.42,459.42,534,404.79l51.15-11.25c9.13,1.08,14.38,32.86,15.94,43.91,3.46,24.45.38,49.47-.61,74C599.61,532.38,598.31,555.07,599.17,577.23Z"/><g id="feet-2" data-name="feet"><polygon class="cls-9" points="471.09 603.3 449.93 603.3 448.13 568.55 469.96 568.55 471.09 603.3"/><path class="cls-6" d="M403.32,620.1a4.78,4.78,0,0,0,4.61,4.94h62.4c3.25,0,5.88-3.17,5.88-7.08V596a4.78,4.78,0,0,0-4.61-4.94H448.89a4.5,4.5,0,0,0-3.45,1.65l-4.86,5.86c-5,6.07-11.87,9.47-19,9.47h-8.26c-5.53,0-10,5.4-10,12.05Z"/></g><path class="cls-2" d="M409,404.79a1.5,1.5,0,0,0,0,.22c2.4,37.69,12,76.38,21.54,113.77,4.3,16.74,8.59,33.21,12.27,49.23.84,3.7,1.7,7.37,2.57,11l28.8-1.82c-.86-22.16.44-44.84,1.28-65.8,1-24.51,4.07-49.53.61-74-.34-2.39-.85-5.76-1.54-9.58-1.72-9.57-4.54-22-8.49-28.94-1.75-3.09-3.72-5.11-5.91-5.37Z"/><path class="cls-2" d="M409,405a20.9,20.9,0,0,0,3.68,6.5c7,8.7,20.47,12.85,35.44,14.78a224.55,224.55,0,0,0,26.41,1.57c10.25.09,19.84-.23,27.19-.23,20.87,0,41.52.05,62.09-1.68,11.16-.93,25.28,0,37.37-1.6a52.15,52.15,0,0,0,11.1-2.58l-5.73-67c-39-3.41-58-8.41-96-.42C497.6,357.1,399,374.5,409,405Z"/><path class="cls-6" d="M430.57,518.78c4.3,16.74,8.59,33.21,12.27,49.23.84,3.7,1.7,7.37,2.57,11l28.8-1.82c-.86-22.16.44-44.84,1.28-65.8,1-24.51,4.07-49.53.61-74-.34-2.39-.85-5.76-1.54-9.58,10.25.09,19.84-.23,27.19-.23,20.87,0,41.52.05,62.09-1.68,11.16-.93,25.28,0,37.37-1.6l-3.35-31.91c-3.92,5.72-30.82,4.68-39.22,5-18.55.75-36.82.31-55.27,1.26-11.15.57-24.29.11-37.3.2-14.53.1-28.9.88-40.19,4.54,9.17,1.24,16.55,4.35,24.89,8.13-5,3-13.64,4.47-18.61,6.94,6.68-.77,11.91,2.42,16,7.76C458.65,440,461.6,467.9,462.2,479.1c.67,12.35-.42,29.39-11.37,37.44C443.73,521.75,437.15,520.93,430.57,518.78Z"/></g><g id="up"><path class="cls-10" d="M580.73,80.45c.34,11.36,2.59,22.59,2.54,24.57h0a3.88,3.88,0,0,0,0,.59,6,6,0,0,0,.51,2.52,4.39,4.39,0,0,0,2,2c4.07,2.15,9.37,2.35,14.39,1.39q1.26-.24,2.49-.57c.56-.15,1.11-.31,1.65-.49a31.86,31.86,0,0,0,5.19-2.19,17,17,0,0,0,5.36-4.2,6.45,6.45,0,0,0,1-1.81c0,.28,0,.57,0,.89,0,.15,0,.31,0,.47s0,.13,0,.19l0,.59a1.27,1.27,0,0,0,0,.2v.05c0,.17,0,.34,0,.52s0,.47,0,.71,0,.5,0,.76c0,.71.06,1.47.08,2.26,0,1.21.08,2.48.11,3.78,0,.39,0,.79,0,1.18.07,2.28.12,4.64.17,6.94,0,.21,0,.41,0,.61,0,1.64.07,3.25.1,4.77,0,2,.07,3.94.09,5.55.05,3.17.07,5.25.05,5.34l.12,0c3.18.85,8.11,1.24,13.79,1.22,10.34,0,23.13-1.43,32.26-3.88h0a34.3,34.3,0,0,0,8.79-3.4,10,10,0,0,0,1.82-1.41l0,0,.23-.26c-1-1.89-1.79-6.09-2.33-11.39,0-.59-.11-1.19-.16-1.8-.09-.91-.16-1.86-.23-2.83-.23-3.24-.41-6.71-.55-10.21-.26-6.9-.37-13.89-.44-19.33h0c0-2.88-.07-5.32-.11-7.09,0-1.36-.05-2.54,0-3.5.18-11.77,1.55-23.5,2.38-35.3,1.27-18.09-72.95-14.31-72.95-14.31-5.59,4.3-7.47,10.64-9,17.61,0,.12-.05.23-.07.35-.16.72,0,12-2.36,18.06-2.15,5.61-9,11-9,14S580.44,76.29,580.73,80.45Z"/><path class="cls-11" d="M583.79,108.14a4.39,4.39,0,0,0,2,2c10.14,5.36,27.86-1.42,30.09-7.87.44,8.53,1.23,40.82.88,42.48,12.12,3.33,50.65-7.9,57-15.42-3.71-6.64-3.57-41.95-3.82-52.66l-51.07-12c-.76,1.42.1,4.47.16,6.28.08,2.32,0,4.76-.11,7.07a37,37,0,0,1-3.41,13c-3.52,7.52-10.29,15.61-18.8,17.57A25.15,25.15,0,0,1,583.79,108.14Z"/><path class="cls-12" d="M673.42,16.91h0C666.8-2.52,647.41-.28,625.13.49c-23.8.82-29.26,6.8-36.54,15.08s-4.34,20.55.33,25.28S605.19,62.3,620.31,51.3h0c-5.5,9.47-6.22,33.64-1.19,44.33,4.61,9.79,8.09,3.29,16,9h0a28.1,28.1,0,0,1,6-7.49h0c-.86,5.54-2.71,11.35-1.78,17.15h0c6.53,3.57,12.55,3.87,20.13,4.22,11,.51,12.38-.6,15.6-10.51,4.93-15.21,4.08-23.21,11-37.68C691.25,55.26,701.37,31.21,673.42,16.91Z"/><path class="cls-10" d="M630.4,64.45c-6.69-7.68-14.51,2-17.62,5.82,0,0,.07,13.34,3.67,16.43,4.35,3.73,10.66.17,13.45-3.62C633.6,78.06,635.41,70.2,630.4,64.45Z"/><path class="cls-11" d="M630.13,68.7c-2.09-5.82-7.66-3-10.12.9,8.59-3.26,9.52,6.66,7.38,12.27C629.48,77.93,631.8,73.35,630.13,68.7Z"/><path class="cls-12" d="M581.47,101.69a3.14,3.14,0,0,0-1.71,3.6c.77,3.16,2,5.8,3.87,7.16,7.17,5.15,22.5,1,22.5,1l14.59-24.3a52.24,52.24,0,0,0-18.13,3.45c-6.82,2.56-15.41-5.14-20.69-8-1.88-1-3.27,1.88-3,4s.89,3.74,1.69,4c4.89,1.56,7.86.54,7,4C587.07,98.64,584.17,100.43,581.47,101.69Z"/><path class="cls-13" d="M550.07,357.16l.45.24c10.19,5.35,29.47,10.71,41.5,13.3,3,.64,5.62,1.12,7.47,1.37,20.46,2.79,40.25,2.48,60.19-1.95,5.27-19.22,17.43-36.95,21.89-56.57,5.15-22.67,13.72-55.49,14.81-79,.81-17.41,11.91-62.74,10.86-80.29-.78-12.89-18.23,1.25-22.47-10.24l-.12-10.51c.8-6.33,1.92-13,.88-19.52-19.27-.75-45.81-3.25-62.82,4.79-15.28,7.22-33.74,9.71-47.28,21.92-7.79,7-10.27,66.24-14.24,119.8-3.18,42.85-7.3,82.08-15.86,88C541.72,351,544.35,354.08,550.07,357.16Z"/><path class="cls-14" d="M550.52,357.4c10.19,5.35,29.47,10.71,41.5,13.3,3.44-26.76-6.24-66.28-1.21-85.62,5.23-20.06,6.88-37.43,10.05-57.77,1.38-8.86-.2-27.35.25-36.27.32-6.37-1.31-14.21.84-20l-21.77,53.59c-1.72,13.76-12.08,24.2-19,35.89-3.18,42.85-7.3,82.08-15.86,88C544.3,349.22,541.83,352.9,550.52,357.4Z"/><circle class="cls-3" cx="623.51" cy="109.31" r="23.44" transform="translate(-9.46 101.29) rotate(-9.22)"/><circle class="cls-4" cx="619.74" cy="109.31" r="17.16" transform="translate(-4.32 28.2) rotate(-2.6)"/><circle class="cls-3" cx="615.77" cy="109.31" r="11.51" transform="translate(103.06 467.43) rotate(-45)"/><path class="cls-5" d="M683.17,114.47c-9.3,4.09-19,4.53-29.3,5s-29.35-2.11-39.31-6.3l-.47,0a4.61,4.61,0,1,1,3.48-7.62c19.09,4.9,47.63.55,65-6.45C682.49,102.82,683.38,110.82,683.17,114.47Z"/><path class="cls-13" d="M525.58,280.64c.34.29.68.56,1,.83,5.41,4.13,12.43,6.29,26-4.28,1.53-1.19,3.14-2.53,4.83-4.05,10.82-9.68,19.83-29.23,28.16-40.61,1-1.31,1.91-2.66,2.86-4.05,13.66-20,26.58-48.59,26.23-72.64-.15-10.14-2.47-17.82-12.25-20.6-6.58-1.87-19-9.25-34.9,16.09,0,0-26.11,54.61-38.24,93.11C523.68,262.42,521.06,276.89,525.58,280.64Z"/><path class="cls-10" d="M433.75,255.88c9.68-3.23,21.44,3,30.26,6.87l-8.94,9.18c-6.83,1.31-9.66,1.36-16.51,1.16-18.76-.53-20.61,2.42-26.92.73C413,265.48,424.19,259.06,433.75,255.88Z"/><path class="cls-13" d="M447.74,273.94c.81,1.68,19.09,6.31,37.08,10.28,15,3.29,29.72,6.13,34,6.43,13.14.89,26-3.95,33.79-13.46a33.07,33.07,0,0,0,7.3-18.43c0-.5.08-1,.1-1.54l-16.68-12.6a37,37,0,0,0-14-.18c-16.71,2.69-35.5,13.83-72.74,14.14C456.6,258.58,445.87,270,447.74,273.94Z"/><path class="cls-14" d="M484.82,284.22c15,3.29,29.72,6.13,34,6.43,13.14.89,26-3.95,33.79-13.46,1.53-1.19,3.14-2.53,4.83-4.05,10.82-9.68,19.83-29.23,28.16-40.61,1-1.31,1.91-2.66,2.86-4.05,6.62-19.43,14.27-30.89,13.61-50.77-6.9,32-35.89,72.39-42.16,81A98.56,98.56,0,0,1,542,278.07c.87-4.68.65-10,.29-14.73-3.79,9.43-9,15-15.7,18.13-7.28,3.43-16.24,4-26.81,3.43C495,284.66,489.89,284.48,484.82,284.22Z"/></g><g id="chair"><g id="bottom"><path class="cls-9" d="M752,434.71v5.83a11.38,11.38,0,0,1-11.37,11.38H683.08l-35.89,18.31a38.17,38.17,0,0,1,6.92,2c7.18,2.93,13.57,7.37,19.94,11.73,6.64,4.53,13.1,9,21.15,10.45a96.75,96.75,0,0,0,13.4,1.11,3.29,3.29,0,0,1,2.82-2.29h22.21a2.88,2.88,0,0,1,2.33,1.39,5.93,5.93,0,0,1,1,3.36c0,2.63-1.48,4.76-3.3,4.76H711.42c-1.54,0-2.83-1.52-3.19-3.58a117.85,117.85,0,0,1-14-1.09c-7.93-1.32-14.45-5.68-21-10.11s-12.8-8.88-20-12a42.2,42.2,0,0,0-11.62-2.93l-19.7,10.05h1a3.33,3.33,0,0,1,2.61,1.37,5.31,5.31,0,0,1,1.08,3.3c0,2.59-1.65,4.68-3.69,4.68h-7.52v14.15h4.17v72.66H597.34V506.61h4.17V492.46H594c-2,0-3.68-2.09-3.68-4.68s1.65-4.67,3.68-4.67h-.82L533,451.92h-51.7A11.38,11.38,0,0,1,470,440.54v-5.83a11.37,11.37,0,0,1,11.37-11.38H740.6A11.37,11.37,0,0,1,752,434.71Z"/></g><g id="m"><path class="cls-3" d="M600.89,574.44v40.64a7,7,0,0,0,4.5,6.51,6.95,6.95,0,0,0,6.77-1.06,7.57,7.57,0,0,0,.6-.53,7,7,0,0,0,2-4.92V574.44a6.94,6.94,0,0,0-2.63-5.44,7.18,7.18,0,0,0-1.87-1.06,6.89,6.89,0,0,0-4.9,0,7.18,7.18,0,0,0-1.87,1.06,7.43,7.43,0,0,0-.59.53A6.93,6.93,0,0,0,600.89,574.44Z"/><path class="cls-2" d="M593.64,621.57a13.73,13.73,0,1,0,13.72-13.73A13.72,13.72,0,0,0,593.64,621.57Z"/><path class="cls-4" d="M587.6,617h39.76c-.43-7.07-9.16-12.71-19.88-12.71a29.39,29.39,0,0,0-4.35.32C594.49,605.88,588,610.91,587.6,617Z"/></g><g id="r"><rect class="cls-3" x="726.17" y="597.18" width="9.42" height="13.66"/><path class="cls-2" d="M730.5,619.79a13.73,13.73,0,1,0,13.73-13.73A13.73,13.73,0,0,0,730.5,619.79Z"/><path class="cls-4" d="M724.46,615.21h39.77c-.43-7.07-9.16-12.71-19.88-12.71a29.53,29.53,0,0,0-4.36.32C731.35,604.1,724.84,609.13,724.46,615.21Z"/><path class="cls-3" d="M619.51,557.63c7.7,1.36,110.69,23.55,124.08,37.28,3.6,3.68-5.35,5.75-9.35,5L619.51,578.32Z"/></g><g id="l"><rect class="cls-3" x="481.29" y="597.18" width="9.42" height="13.66"/><path class="cls-2" d="M486.38,619.79a13.73,13.73,0,1,1-13.73-13.73A13.73,13.73,0,0,1,486.38,619.79Z"/><path class="cls-4" d="M492.42,615.21H452.65c.43-7.07,9.17-12.71,19.88-12.71a29.53,29.53,0,0,1,4.36.32C485.53,604.1,492,609.13,492.42,615.21Z"/><path class="cls-3" d="M597.37,557.63c-7.7,1.36-110.69,23.55-124.08,37.28-3.6,3.68,5.35,5.75,9.35,5l114.73-21.59Z"/></g><g id="handle"><path class="cls-4" d="M498.32,302.31c4.2-2.57,13-3,17.82-3h84.67c-2.85,7.43-5.16,15.11-7.57,22.74H514.05l-.1,0h0l-.05,0h0a7.79,7.79,0,0,0-.66.58h0a.22.22,0,0,0-.05.08,8.61,8.61,0,0,0-.49.83h0a16.61,16.61,0,0,0-.47,1.71h0c-.1,1.83,0,3.67,0,5.49v74.64a11.47,11.47,0,0,1-11.37,11.37,10.81,10.81,0,0,1-2.68-.33,11.5,11.5,0,0,1-8.69-11V326.64C489.44,316.89,489.89,307.46,498.32,302.31Z"/><path class="cls-3" d="M505.44,310.65c4.2-2.57,14.27-3,19.06-3h73.33c-1.59,4.78-3.07,9.6-4.59,14.41H514.05l-.1,0h0l-.05,0h0a7.79,7.79,0,0,0-.66.58h0a.22.22,0,0,0-.05.08,8.61,8.61,0,0,0-.49.83h0a16.61,16.61,0,0,0-.47,1.71h0c-.1,1.83,0,3.67,0,5.49v74.64a11.47,11.47,0,0,1-11.37,11.37,10.81,10.81,0,0,1-2.68-.33,11,11,0,0,1-.33-2.7V335C497.8,325.23,497,315.8,505.44,310.65Z"/></g><path class="cls-15" d="M761.65,124.37a15.85,15.85,0,0,1-15.88,15.81L674.89,140a15.85,15.85,0,0,1-15.81-15.88l.06-25.35A15.85,15.85,0,0,1,675,83l70.88.16A15.85,15.85,0,0,1,761.71,99Z"/><path class="cls-2" d="M761.61,125.55a15.85,15.85,0,0,1-15.83,14.63L674.89,140a15.84,15.84,0,0,1-15.8-15.88l0-25.35A15.85,15.85,0,0,1,674,83c0,.39,0,.78,0,1.18l-.06,25.36a15.84,15.84,0,0,0,15.81,15.88l70.88.16C760.94,125.58,761.28,125.57,761.61,125.55Z"/><path class="cls-15" d="M573,369.33c.49,11-.27,25.54,2.79,37.11a41.53,41.53,0,0,0,1.4,4.34,2.33,2.33,0,0,0,.11.28c.22.58,5.58,31.13,5.84,31.68,25.34.31,59.23.92,90,1.18,17.39.15,33.79.18,47.13,0,19.18-.26,32-1,32.33-2.52,7.93,0,14.76-7,15.49-16.19l1-13.07.32-4L789.76,155a20.13,20.13,0,0,0,0-2.57c-.4-8.47-6.2-15.41-13.83-16-1.77-.75-8.69-1.84-17.22-2.94-3.83-.49-8-1-12.15-1.45-10.1-1.13-57.43-2.29-85.68-.45h0c-5,.32-9.45.74-13,1.27-24.1,3.66-35.28,17.46-39.41,41.84-.14.84-.29,1.68-.43,2.52q-1.87,10.94-3.81,21.88-.82,4.66-1.66,9.33Q599,228.66,595.16,249q-.61,3.28-1.25,6.58-.25,1.35-.54,2.7c-5.16,24.83-16.22,49.38-18.79,74.46-.47,4.56-.9,9.17-1.21,13.79A203.94,203.94,0,0,0,573,369.33Z"/><path class="cls-2" d="M615.76,392.5a32,32,0,0,0,11.38,13.94c37.14,26.65,137.56,6.75,142,5.7l.32-4L789.76,155a20.13,20.13,0,0,0,0-2.57c-2.76-.76-5.56-1.6-8.35-2.45-6.79-2.07-13.52-4.19-19.69-5.31-1.38-.25-2.74-.45-4.06-.6-21.31-2.27-41.86-.18-62.81,1.05-18.29,1.07-40,.84-55,12.8-15.27,12.17-15.31,33.94-17.76,51.26C616.47,248.92,612,291,612,332.2,612,350.57,609,375.86,615.76,392.5Z"/><path class="cls-15" d="M457.26,423.48v3.41c0,7.07,7.22,13.15,17.5,15.72a45.62,45.62,0,0,0,11,1.31H720.26c19.18-.26,32-1,32.33-2.52,7.93,0,14.76-7,15.49-16.19l1-13.07.32-4a45.08,45.08,0,0,0-12.29-1.66H485.73C470,406.44,457.26,414.07,457.26,423.48Z"/></g></g><g id="cat-2" data-name="cat"><path id="tail" class="cls-6" d="M147.93,278.78c-13.16-5.87-30.53-19.48-48.4-8.71s-9.85,19.56,7.07,15.57,20.84,2.63,32.88,10.23,40.17,15.29,59.63,16.33c39.59,1,53.06-27.48,40.5-44.58s-22.68,4-17.52,11.49-4.53,15.7-18.77,14.3C176.12,292.13,161.09,284.66,147.93,278.78Z"/><path id="body" class="cls-6" d="M153.23,207a20,20,0,0,1-5.31-9.67c-4.13,2.22-5.08-.95-4.44-12.39-5.41,2.56-4.19-1.51,1.14-25.67a24.87,24.87,0,0,1-10.68-20.09c0-2.8,2.21-5,5.77-6.75a25.2,25.2,0,0,1,7.7-11.76c-.37-7.14,1.15-28.47,1.15-29.78,0-1.59,3.5,2.22,3.5,2.22,1.32,2.65,7.06,14.79,9.66,20.77a32.11,32.11,0,0,1,5.59-.49l1,0c3.41-6.63,10.55-20.28,12.7-22.6,2.86-3.1,7.63,11.2,11.2,23.11,2,6.77,1.6,11.38.84,14.11a23.52,23.52,0,0,1,0,22.26c-.06,3,0,5.25.57,5.73,9.21,5.72,3.18,12.08,10.17,14.62,41.44,14.52,36.22,54.74,34.73,84-1.4,27.39-6.46,29.22-8.34,29.51-31.88,4.82-56.82,2.56-84.28,0a5.35,5.35,0,0,1-4.81-6.05C143.4,261.13,153.76,231.15,153.23,207Z"/><path id="ear2" class="cls-16" d="M157.78,114.82a29,29,0,0,0-8.44,4.27c-.14-4.81.71-16.84.71-17.61,0-1,2.13,1.35,2.13,1.35C152.94,104.35,156.09,111,157.78,114.82Z"/><path id="ear1" class="cls-16" d="M187.07,120.51a29.86,29.86,0,0,0-16.21-7c3.15-6.09,8.15-15.49,9.78-17.26l.14-.12C183.67,98.77,185.84,111.34,187.07,120.51Z"/><path id="eye_l" class="cls-17" d="M161.57,133.31c-.25,1.18-4.71,4.78-9.13,3.88s-7.1-6-6.87-7.15,4.17-2.92,8.59-2S161.81,132.12,161.57,133.31Z"/><path id="eye_r" class="cls-17" d="M167.32,133.31c.24,1.18,4.71,4.78,9.12,3.88s7.1-6,6.87-7.15-4.17-2.92-8.58-2S167.08,132.12,167.32,133.31Z"/><ellipse class="cls-6" cx="153.55" cy="132.56" rx="2.49" ry="3.55"/><ellipse class="cls-6" cx="175.31" cy="132.56" rx="2.49" ry="3.55"/></g></g></g></svg>