<svg xmlns="http://www.w3.org/2000/svg" viewBox="0 0 958.95 235.26"><defs><style>.cls-1{fill:#fff;}</style></defs><g id="Layer_2" data-name="Layer 2"><g id="Layer_5" data-name="Layer 5"><path id="A" class="cls-1" d="M838.74,233c2.16-6.17,4.16-11.85,6.15-17.54q13-37.05,25.92-74.11c3-8.44,6-16.85,8.88-25.3.69-2,1.61-2.9,4-2.86q15.26.24,30.51,0c2.37,0,3.27.89,4,2.84Q924,133,929.92,149.81q10,28.31,20,56.61,4.34,12.26,8.61,24.51c.17.51.24,1,.41,1.81a13.9,13.9,0,0,1-2,.29c-8.49,0-17-.06-25.47.05-2,0-2.84-.78-3.68-2.54-2.21-4.61-4.28-9.38-7.22-13.51-11.28-15.82-32.58-15.56-43.55.5-2.86,4.2-4.78,9-7.25,13.51-.46.83-1.51,1.89-2.29,1.9C858.13,233.07,848.72,233,838.74,233Zm60.37-98.14c-4,23.45-13.15,45.26-19.41,68,5.1-6.54,9.82-13.32,19.43-13.26,9.41.07,14.45,6.3,19.34,13.15C912.18,180,903.32,158.15,899.11,134.89Z"/><path id="R" class="cls-1" d="M737.58,113.29h20.11c12.13,0,24.26-.32,36.37.09,11.2.38,21.77,3.15,30.05,11.47a29.16,29.16,0,0,1,8.24,16.21c3,18.66-4.6,33.1-23.34,39-3.94,1.23-8.1,1.72-12.91,2.71C816,194.2,830.93,209,834.23,233h-3.29c-8.48,0-17,0-25.46,0-1.56,0-2.72-.15-3-2-1.67-10.38-7.29-18.83-13.35-27S776.85,187.82,771,179.53c-2.28-3.22-3.76-7-6-11.28-.2,1.9-.43,3.09-.43,4.29q0,28.41,0,56.84c0,3.66,0,3.65-3.7,3.65H737.58Zm39.79,24.06c-3.55,0-7.09,0-10.64,0-1.47,0-2.26.34-2.2,2,.12,2.8,0,5.6.08,8.4.1,4.24.72,8.36,3.17,12,6.1,9,21.27,11.91,30.9,6,5-3,7.78-7.39,7.53-13.15-.28-6.38-3.89-10.61-9.83-13C790.21,137.07,783.78,137.4,777.37,137.35Z"/><path id="A-2" data-name="A" class="cls-1" d="M730.66,233h-8.51c-6.35,0-12.69-.05-19,0-1.75,0-2.56-.6-3.34-2.21-2.25-4.69-4.33-9.57-7.32-13.78-11.27-15.87-32.53-15.65-43.53.41-2.87,4.19-4.78,9-7.28,13.49a3.89,3.89,0,0,1-2.54,2c-9.31.14-18.63.09-28.47.09.91-2.76,1.69-5.28,2.56-7.76q13.47-38.21,26.94-76.41,5.65-16.06,11.15-32.19c.81-2.4,1.83-3.53,4.66-3.47,9.89.22,19.78.2,29.66,0,2.54,0,3.64.85,4.4,3.05q5.7,16.5,11.53,33,10.19,28.85,20.4,57.66,4.23,12,8.39,24A12.84,12.84,0,0,1,730.66,233ZM670.91,135c-4,23.47-13.16,45.26-19.49,68,5.12-6.36,9.7-13.29,19.22-13.34s14.71,6.12,19.62,13.12C684,180,675.18,158.18,670.91,135Z"/><path id="K" class="cls-1" d="M498.22,233.05V113.29h3c6.81,0,13.62.13,20.42-.07,2.76-.08,3.67.55,3.65,3.5-.14,21.38-.09,42.76-.08,64.14a11.21,11.21,0,0,0,.91,4.86c1.32-4.41,2.54-8.85,4-13.22,5.25-16,12.92-30.53,25.14-42.36,9-8.71,19.53-14.66,32-16.61,4.32-.68,8.85-.11,13.6-.11v15.86c0,2.71-.13,5.42,0,8.12.14,2.14-.67,2.75-2.71,2.7-14.76-.35-27.08,5.65-38.23,14.76-1.63,1.33-1.57,2.34-.53,3.92q14.21,21.63,28.31,43.3,9.54,14.64,19,29.33a10.89,10.89,0,0,1,.68,1.62h-2.94c-9.14,0-18.29-.07-27.42.05a4.55,4.55,0,0,1-4.47-2.53Q557.32,205.77,542,181.07c-.53-.86-1.15-1.67-2-2.88-.81,1.18-1.5,2.1-2.08,3.07A83.42,83.42,0,0,0,526.31,216c-.49,4.91-.65,9.85-1.13,14.76-.09.82-1.08,2.21-1.68,2.22C515.13,233.09,506.76,233.05,498.22,233.05Z"/><path id="S" class="cls-1" d="M399,193.7c5.59,3.76,10.72,7.85,16.4,10.91,10.79,5.81,22.36,8.13,34.56,5.44,4.25-.94,8.24-2.71,10.66-6.6,3.31-5.33,1.87-11.59-4-14.55a116.2,116.2,0,0,0-17.67-6.65c-8.88-2.75-18-4.72-26.12-9.55-11.83-7.06-15.43-17.94-13.76-30.28,2.05-15.11,11.9-23.54,25.44-27.81,19-6,37.84-4.53,56.3,2.76,1.85.73,2.45,1.72,2.42,3.75-.11,8.95,0,17.92,0,26.88,0,.43-.1.87-.18,1.61-3.81-2.57-7.23-5.27-11-7.35-11.31-6.25-23.21-9-36-4.95a16.81,16.81,0,0,0-3.75,1.8c-6.63,4.2-6.65,12.25.45,15.59,5.83,2.75,12.21,4.39,18.44,6.21,9,2.63,18.2,4.69,26.26,9.88,10.42,6.72,14.21,16.52,13.43,28.5-1.16,17.93-13.55,28.28-27.8,32.63-14.83,4.52-29.79,4.27-44.65.33-6-1.58-11.74-4.06-17.51-6.35a3.88,3.88,0,0,1-2.11-2.81c-.15-9.52-.08-19,0-28.56A2.91,2.91,0,0,1,399,193.7Z"/><path id="v" class="cls-1" d="M401.73,61.25a79.6,79.6,0,0,1,31.13,4.25,35.72,35.72,0,0,1,9.9,5.19c1.8,1.34,3.05,1.17,4.86-.12,11.86-8.43,25.55-9.35,40.1-9.57-6,7.64-11.18,15.17-17.45,21.82a44.27,44.27,0,0,1-12.81,9.91c-10,4.8-19.7,4.14-29-1.88-7.91-5.13-13.7-12.37-19.26-19.82C406.88,67.89,404.46,64.8,401.73,61.25Z"/><path id="N" class="cls-1" d="M330.23,187.8c.08-1.25.23-2.5.23-3.75,0-22.41.05-44.82-.06-67.22,0-2.76.59-3.72,3.54-3.62,7,.24,14,.08,21.19.08V233H333c-7.29,0-7.1-.06-9.33-7-3.9-12-9.91-23.1-16.63-33.77Q294.9,173,282.62,153.82c-.7-1.09-1.53-2.09-2.3-3.13l-.85.3v3.48c0,25,0,50,.07,75.06,0,2.83-.72,3.67-3.59,3.57-6.89-.22-13.78-.07-20.92-.07V113.29c6.33,0,12.65,0,19,0,3.44,0,7.46-1,10.16.48s4.12,5.32,6,8.22c11,17.33,22,34.63,32.74,52.07,2.66,4.31,4.54,9.11,6.77,13.68Z"/><path id="A-3" data-name="A" class="cls-1" d="M248.16,233h-8.7c-6.34,0-12.69-.05-19,0-1.75,0-2.55-.61-3.32-2.22-2.26-4.69-4.33-9.57-7.33-13.77-11.39-16-32.73-15.62-43.7.64-2.79,4.14-4.67,8.88-7.12,13.26a3.87,3.87,0,0,1-2.53,2c-9.31.14-18.62.09-28.5.09,1.28-3.74,2.43-7.21,3.64-10.66q9.88-28.2,19.79-56.41,8.79-25,17.55-50.09c.68-2,1.65-2.67,3.81-2.64,10.08.13,20.15.16,30.22,0,2.52,0,3.62.8,4.39,3.05,3.82,11.09,7.73,22.15,11.64,33.22q10.08,28.58,20.18,57.14,4.28,12.12,8.5,24.25C247.82,231.38,247.9,231.93,248.16,233ZM188.24,135c-4,23.43-13.18,45.24-19.45,67.93,5.11-6.49,9.78-13.33,19.37-13.3,9.44,0,14.53,6.22,19.41,13.12C201.37,180,192.44,158.22,188.24,135Z"/><path id="V-2" data-name="V" class="cls-1" d="M154.27,113.29l-11,28.88c-8.9,23.31-17.88,46.59-26.63,70-2.28,6.09-3.91,12.43-5.63,18.71-.48,1.74-1.24,2.22-2.88,2.21-9.42,0-18.84,0-28.26-.09a3,3,0,0,1-2.27-1.69c-8.45-31.78-22.5-61.53-33.64-92.33-2.88-8-6.09-15.81-9.13-23.72a13,13,0,0,1-.43-1.8c1,0,1.78-.13,2.59-.13,8.76,0,17.53,0,26.3,0,1.71,0,2.57.42,3.17,2.26,6.78,20.81,13.81,41.55,20.51,62.39,2.38,7.43,4,15.1,6.07,22.65.3,1.12.77,2.19,1.33,3.78C96,198,97.31,192.2,99,186.53c3.21-10.5,6.64-20.94,10-31.4q6.39-19.78,12.91-39.53c.31-.92,1.44-2.2,2.2-2.21C134.05,113.24,143.93,113.29,154.27,113.29Z"/><path id="I" class="cls-1" d="M0,233V113.29H5.18c6.43,0,12.87.06,19.31,0,2,0,2.58.58,2.58,2.54q-.08,57.28,0,114.56c0,1.55-.08,2.74-2.16,2.72C16.69,233,8.5,233,0,233Z"/><path id="m" class="cls-1" d="M355,67.21h-11.1V64.7c0-7.64,0-15.27,0-22.9a29.39,29.39,0,0,0-.45-4.86c-.65-3.79-2.41-6.9-6.42-7.75-4.32-.92-8.18.11-11.05,3.79-2.72,3.49-2.92,7.64-3,11.77-.09,6.54,0,13.08,0,19.62v2.72h-11.3c0-1,0-1.89,0-2.8q0-12.39-.08-24.77a11.17,11.17,0,0,0-.23-2.31c-1-4.91-3.7-7.85-7.41-8.22-5.45-.53-9.74,1.82-11.56,6.69A19.77,19.77,0,0,0,291,42c-.17,7.47-.09,14.95-.11,22.42v2.68h-11.1V19.79H291V30.21c3.39-7.29,8.44-11.76,16.79-11.58,8.1.18,12.31,5,14.57,12.54,1-1.94,1.77-3.59,2.73-5.09a16.46,16.46,0,0,1,17-7.3c7,1.28,10.73,5.82,12.41,12.38a19.37,19.37,0,0,1,.6,4.61c.05,10,0,19.94,0,29.91C355.08,66.13,355,66.58,355,67.21Z"/><path id="tick" class="cls-1" d="M272,12.26c-.9,4.84-2.06,11.19-3.28,17.53-.07.39-.59.71-.9,1.06-.4-.38-1.06-.71-1.14-1.15-1.12-6.28-2.34-12.55-3.16-18.86-.52-4,1.52-6.2,4.75-5.8C271,5.38,272.26,7.3,272,12.26Z"/><path id="I-2" data-name="I" class="cls-1" d="M255.92,67.17H243.69V3.44h12.23Z"/><path id="comma" class="cls-1" d="M219.73,61.49c-2.78,8.12-5.39,15.77-8.07,23.39a2,2,0,0,1-1.44,1.06c-2.71.1-5.43,0-8.45,0,.84-3.88,1.64-7.56,2.46-11.24.87-3.86,1.72-7.74,2.7-11.58.17-.64.94-1.59,1.46-1.61C212,61.42,215.65,61.49,219.73,61.49Z"/><path id="o" class="cls-1" d="M174.13,18.64c14.64,0,24.8,10,24.85,24.47.06,16.14-11.54,25.5-25.08,25.26-14.71-.27-24.44-10.23-24.42-25.61C149.49,28.59,159.66,18.64,174.13,18.64ZM187.19,44.2c-.39-2.41-.54-4.2-1-5.91a12,12,0,0,0-11-9.25c-6.38-.28-10.73,2.56-12.82,8.29a19.06,19.06,0,0,0-.58,10.34c1.07,5.51,5.09,9.46,10.18,10.16,5.9.81,10.74-1.46,13.13-6.62A42.62,42.62,0,0,0,187.19,44.2Z"/><path id="l" class="cls-1" d="M132.89,0h10.74V67.13H132.89Z"/><path id="l-2" data-name="l" class="cls-1" d="M115.07,0H125.8V67.13H115.07Z"/><path id="e" class="cls-1" d="M105.15,52.69c0,3.47,0,6.94-.06,10.41A2.31,2.31,0,0,1,104,64.67C94.43,69.74,81.2,70,72.54,63.34c-8-6.09-10.67-14.52-9.35-24,2.91-20.82,24.93-24.44,37-17.83,5.23,2.87,8.5,7.22,8.8,13.41.34,7.38-4.08,12.17-11.47,12.36-3.42.09-6.85,0-10.27,0a25.6,25.6,0,0,0-4.63.47c-1.93.39-3.54,1.39-3.84,3.55s.91,3.75,2.69,4.78a16.71,16.71,0,0,0,10.12,2.06A24.57,24.57,0,0,0,105.15,52.69ZM76.41,49.18c.06-.28.13-.57.17-.85.59-5.07,2.58-7.41,7.61-8.24a72.22,72.22,0,0,1,8.34-.42c2-.08,3.72-.78,4.5-2.73a4.72,4.72,0,0,0-1.36-5.51,11,11,0,0,0-3.74-2.22A13.55,13.55,0,0,0,77.8,33.38C74,38.25,74,43.6,76.41,49.18Z"/><path id="h" class="cls-1" d="M1.73,3.37H14c0,.9.12,1.72.12,2.55,0,6.7,0,13.39,0,20.09,0,1.59.44,2.19,2.1,2.18q12.72-.11,25.45,0c1.66,0,2.13-.56,2.11-2.17-.07-6.62,0-13.24,0-19.86V3.45H56.28V67.08H43.79V39.5c-1.07-.06-1.82-.15-2.57-.15-8.17,0-16.34.06-24.51-.05-2,0-2.7.5-2.66,2.6.12,7.55,0,15.1,0,22.66,0,.83-.07,1.66-.12,2.59H1.73Z"/></g></g></svg>