<?xml version="1.0" encoding="utf-8"?>
<!-- Generator: Adobe Illustrator 24.1.2, SVG Export Plug-In . SVG Version: 6.00 Build 0)  -->
<svg version="1.1" id="Layer_1" xmlns="http://www.w3.org/2000/svg" xmlns:xlink="http://www.w3.org/1999/xlink" x="0px" y="0px"
	 viewBox="0 0 46.7 36.8" style="enable-background:new 0 0 46.7 36.8;" xml:space="preserve">
<style type="text/css">
	.st0{fill:#5E5E5E;}
	.st1{fill:#FFFFFF;}
</style>
<path class="st0" d="M24.1,12.2c-0.1,0.3-0.2,0.7-0.3,0.9c-1.9,4.1-4.3,8.1-7,11.7c-0.4,0.6-0.9,1.1-1.5,1.6
	c-0.9,0.8-1.7,0.4-1.8-0.9c-0.1-1.3-0.1-2.6-0.2-3.8c0.1-0.7-0.2-1.3-0.6-1.8c-0.3,0.3-0.6,0.6-0.9,0.9c-0.6,0.8-1.2,1.6-1.8,2.4
	c-2.2,3.3-4.3,6.6-6.6,10c1.4-0.3,2.3-1.9,3.6-1.9c0,0.1,0.1,0.2,0.1,0.3c-0.2,0.3-0.4,0.5-0.6,0.8c-1.7,1.3-3.5,2.7-5.2,4
	C1,36.7,0.6,37,0.2,36.6C0,36.2,0,35.7,0,35.3c0.1-1.1,0.2-2.2,0.3-3.3c0-0.3,0.1-0.5,0.1-0.8c0.1-0.2,0.3-0.4,0.5-0.6
	c0.2,0.2,0.4,0.4,0.5,0.7c0,0.6,0,1.2,0,1.8c0,0.2,0,0.4,0,0.9c0.7-1.1,1.3-2,1.9-2.9c1.8-2.9,3.7-5.8,5.5-8.7
	c0.6-0.9,1.3-1.8,2.1-2.7c0.3-0.4,0.7-0.7,1.1-1c0.6-0.5,1.4-0.4,1.9,0.2c0.2,0.2,0.3,0.4,0.3,0.7c0.3,1,0.4,1.9,0.5,2.9
	c0.1,0.8,0,1.6,0.1,2.8c0.5-0.6,0.9-1,1.3-1.4c2.2-2.8,4.2-5.8,5.9-8.9c0.5-0.8,0.9-1.5,1.4-2.3c0.2-0.2,0.4-0.5,0.6-0.7
	C24,12.1,24.1,12.1,24.1,12.2z"/>
<g>
	<g>
		<path class="st1" d="M13.9,8.2V2.3h1.6L16.8,5c0.1,0.2,0.2,0.4,0.3,0.6s0.2,0.5,0.3,0.7h0c0-0.3-0.1-0.7-0.1-1.1
			c0-0.4-0.1-0.8-0.1-1.2V2.3h1.5v5.9h-1.6l-1.3-2.6c-0.1-0.2-0.2-0.4-0.3-0.6c-0.1-0.2-0.2-0.5-0.3-0.7h0c0,0.3,0.1,0.7,0.1,1.1
			c0,0.4,0.1,0.8,0.1,1.1v1.7H13.9z"/>
		<path class="st1" d="M21.1,8.3c-0.3,0-0.5-0.1-0.7-0.2C20.1,8,20,7.8,19.9,7.6c-0.1-0.2-0.2-0.4-0.2-0.7c0-0.5,0.2-0.8,0.6-1.1
			s1-0.4,1.9-0.5c0-0.1,0-0.2-0.1-0.3S22,4.9,21.9,4.9c-0.1,0-0.2,0-0.3,0c-0.2,0-0.3,0-0.5,0.1C20.8,5,20.6,5,20.4,5.2l-0.5-1
			c0.2-0.1,0.4-0.2,0.6-0.3c0.2-0.1,0.4-0.2,0.7-0.2c0.2,0,0.5-0.1,0.7-0.1c0.4,0,0.7,0.1,1,0.2c0.3,0.1,0.5,0.4,0.6,0.7
			c0.2,0.3,0.2,0.7,0.2,1.2v2.5h-1.3l-0.1-0.4h0c-0.2,0.2-0.4,0.3-0.6,0.4C21.5,8.3,21.3,8.3,21.1,8.3z M21.6,7.1
			c0.1,0,0.2,0,0.3-0.1C22,7,22.1,6.9,22.2,6.8V6.2c-0.2,0-0.4,0.1-0.6,0.1s-0.2,0.1-0.3,0.2c-0.1,0.1-0.1,0.2-0.1,0.2
			c0,0.1,0,0.2,0.1,0.2C21.4,7.1,21.5,7.1,21.6,7.1z"/>
		<path class="st1" d="M26.6,8.3c-0.6,0-1-0.2-1.3-0.5S24.9,7,24.9,6.5V4.9h-0.6V3.7L25,3.7l0.2-1.4h1.3v1.4h1v1.2h-1v1.5
			c0,0.2,0.1,0.4,0.2,0.5s0.2,0.1,0.4,0.1c0.1,0,0.1,0,0.2,0c0.1,0,0.1,0,0.2,0l0.2,1.1c-0.1,0-0.3,0.1-0.4,0.1
			C27.1,8.3,26.9,8.3,26.6,8.3z"/>
		<path class="st1" d="M29.6,8.3c-0.3,0-0.5-0.1-0.7-0.2c-0.2-0.1-0.4-0.3-0.5-0.5c-0.1-0.2-0.2-0.4-0.2-0.7c0-0.5,0.2-0.8,0.6-1.1
			s1-0.4,1.9-0.5c0-0.1,0-0.2-0.1-0.3c0-0.1-0.1-0.1-0.2-0.2s-0.2,0-0.3,0c-0.2,0-0.3,0-0.5,0.1C29.3,5,29.1,5,28.9,5.2l-0.5-1
			C28.5,4,28.8,3.9,29,3.9c0.2-0.1,0.4-0.2,0.7-0.2c0.2,0,0.5-0.1,0.7-0.1c0.4,0,0.7,0.1,1,0.2c0.3,0.1,0.5,0.4,0.6,0.7
			c0.2,0.3,0.2,0.7,0.2,1.2v2.5h-1.3l-0.1-0.4h0c-0.2,0.2-0.4,0.3-0.6,0.4C30,8.3,29.8,8.3,29.6,8.3z M30.1,7.1c0.1,0,0.2,0,0.3-0.1
			c0.1-0.1,0.2-0.1,0.2-0.2V6.2c-0.2,0-0.4,0.1-0.6,0.1c-0.1,0.1-0.2,0.1-0.3,0.2s-0.1,0.2-0.1,0.2c0,0.1,0,0.2,0.1,0.2
			C29.9,7.1,30,7.1,30.1,7.1z"/>
		<path class="st1" d="M34.6,8.3c-0.3,0-0.6-0.1-0.9-0.2c-0.3-0.1-0.6-0.3-0.8-0.5l0.7-0.9c0.2,0.2,0.4,0.3,0.6,0.3
			c0.2,0.1,0.4,0.1,0.5,0.1c0.2,0,0.3,0,0.3-0.1c0.1,0,0.1-0.1,0.1-0.2c0-0.1,0-0.1-0.1-0.2c-0.1-0.1-0.2-0.1-0.3-0.1
			s-0.3-0.1-0.4-0.2c-0.2-0.1-0.4-0.2-0.6-0.3c-0.2-0.1-0.3-0.3-0.4-0.4c-0.1-0.2-0.2-0.4-0.2-0.6c0-0.4,0.2-0.8,0.5-1.1
			c0.3-0.3,0.8-0.4,1.3-0.4c0.3,0,0.7,0.1,0.9,0.2s0.5,0.3,0.7,0.4L35.9,5c-0.2-0.1-0.3-0.2-0.5-0.3S35.1,4.7,35,4.7
			c-0.1,0-0.2,0-0.3,0.1c-0.1,0-0.1,0.1-0.1,0.2c0,0.1,0,0.1,0.1,0.2c0.1,0,0.1,0.1,0.3,0.1c0.1,0,0.3,0.1,0.5,0.2
			c0.2,0.1,0.4,0.2,0.6,0.3s0.3,0.3,0.4,0.5s0.2,0.4,0.2,0.6c0,0.3-0.1,0.5-0.2,0.8C36.2,7.8,36,8,35.7,8.1S35.1,8.3,34.6,8.3z
			 M34.2,3.1L33,1.3h1.2l0.7,0.7h0l0.7-0.7h1.2l-1.2,1.7H34.2z"/>
		<path class="st1" d="M38.5,8.3c-0.3,0-0.5-0.1-0.7-0.2c-0.2-0.1-0.4-0.3-0.5-0.5c-0.1-0.2-0.2-0.4-0.2-0.7c0-0.5,0.2-0.8,0.6-1.1
			s1-0.4,1.9-0.5c0-0.1,0-0.2-0.1-0.3c0-0.1-0.1-0.1-0.2-0.2s-0.2,0-0.3,0c-0.2,0-0.3,0-0.5,0.1C38.3,5,38.1,5,37.8,5.2l-0.5-1
			c0.2-0.1,0.4-0.2,0.6-0.3c0.2-0.1,0.4-0.2,0.7-0.2c0.2,0,0.5-0.1,0.7-0.1c0.4,0,0.7,0.1,1,0.2c0.3,0.1,0.5,0.4,0.6,0.7
			c0.2,0.3,0.2,0.7,0.2,1.2v2.5h-1.3l-0.1-0.4h0c-0.2,0.2-0.4,0.3-0.6,0.4C39,8.3,38.8,8.3,38.5,8.3z M39.1,7.1c0.1,0,0.2,0,0.3-0.1
			c0.1-0.1,0.2-0.1,0.2-0.2V6.2c-0.2,0-0.4,0.1-0.6,0.1c-0.1,0.1-0.2,0.1-0.3,0.2s-0.1,0.2-0.1,0.2c0,0.1,0,0.2,0.1,0.2
			C38.8,7.1,38.9,7.1,39.1,7.1z"/>
	</g>
</g>
</svg>
