<svg xmlns="http://www.w3.org/2000/svg" viewBox="0 0 46.71 36.79"><defs><style>.cls-1{fill:#5e5e5e;}.cls-2{fill:#f9f9f9;}</style></defs><g id="Layer_2" data-name="Layer 2"><g id="Layer_1-2" data-name="Layer 1"><path class="cls-1" d="M25.52,11.93c-.11.34-.19.7-.33,1a70.45,70.45,0,0,1-7.44,12.38A12.53,12.53,0,0,1,16.21,27c-.94.82-1.77.42-1.88-1s-.1-2.7-.16-4.06a2.4,2.4,0,0,0-.65-1.92,13.57,13.57,0,0,0-1,1,29,29,0,0,0-1.91,2.54C8.31,27,6.05,30.51,3.67,34.17c1.51-.36,2.43-2.05,3.85-2a3.11,3.11,0,0,1,.14.31A3.53,3.53,0,0,1,7,33.3c-1.82,1.42-3.67,2.84-5.51,4.26-.39.3-.89.63-1.23.14A2.34,2.34,0,0,1,0,36.4c.06-1.16.2-2.34.31-3.49a2.74,2.74,0,0,1,.15-.85A2.93,2.93,0,0,1,1,31.42c.17.25.47.46.49.7a11.89,11.89,0,0,1,0,1.89c0,.21,0,.45,0,1,.75-1.21,1.36-2.15,2-3.09,1.94-3.08,3.87-6.17,5.84-9.23a30,30,0,0,1,2.17-2.84,5.28,5.28,0,0,1,1.2-1.06,1.41,1.41,0,0,1,2.3.89,16.47,16.47,0,0,1,.55,3.1c.1.85,0,1.7.09,2.92.57-.67,1-1.06,1.34-1.51a76.2,76.2,0,0,0,6.27-9.38c.48-.82,1-1.61,1.47-2.39a5.62,5.62,0,0,1,.68-.7C25.4,11.81,25.48,11.87,25.52,11.93Z" transform="translate(0 -1.16)"/><path class="cls-2" d="M11.11,1.57h1.52l.95,2.53L14,5.37h0a20,20,0,0,1-.21-2.16V1.57H15.3V7.24H13.78L12.83,4.7l-.47-1.27h0a21.28,21.28,0,0,1,.21,2.17V7.24H11.11Z" transform="translate(0 -1.16)"/><path class="cls-2" d="M16.29,6c0-1,.77-1.48,2.76-1.59C19,4.1,18.7,4,18.21,4A3.05,3.05,0,0,0,17,4.32l-.52-1a4.18,4.18,0,0,1,2.08-.58,1.83,1.83,0,0,1,2,2V7.24H19.33l-.11-.45h0a2.62,2.62,0,0,1-1.49.55A1.31,1.31,0,0,1,16.29,6Zm2.76-.14V5.3c-1.07,0-1.33.28-1.33.58s.16.31.47.31A1.46,1.46,0,0,0,19.05,5.86Z" transform="translate(0 -1.16)"/><path class="cls-2" d="M22.46,5.39V4h-1V2.93l1.11-.05.2-1.31H24V2.88h1.72V4H24V5.36c0,.62.28.81.84.81a2.48,2.48,0,0,0,.8-.14l.26,1.09a5.54,5.54,0,0,1-1.45.22A1.73,1.73,0,0,1,22.46,5.39Z" transform="translate(0 -1.16)"/><path class="cls-2" d="M26.76,6c0-1,.76-1.48,2.75-1.59-.05-.31-.35-.45-.83-.45a3,3,0,0,0-1.26.36l-.53-1A4.24,4.24,0,0,1,29,2.77a1.82,1.82,0,0,1,2,2V7.24H29.79l-.1-.45h0a2.59,2.59,0,0,1-1.48.55A1.31,1.31,0,0,1,26.76,6Zm2.75-.14V5.3c-1.06,0-1.32.28-1.32.58s.15.31.47.31A1.41,1.41,0,0,0,29.51,5.86Z" transform="translate(0 -1.16)"/><path class="cls-2" d="M31.92,6.68l.63-.92a3.44,3.44,0,0,0,1.71.48c.38,0,.54-.1.54-.26s-.23-.24-1-.4c-1.21-.26-1.64-.71-1.64-1.4,0-.85.81-1.41,2.07-1.41a3.6,3.6,0,0,1,1.94.61l-.66.89a2.91,2.91,0,0,0-1.41-.4c-.28,0-.46.09-.46.24s.23.21.91.37c1.31.3,1.69.69,1.69,1.42s-.77,1.44-2.23,1.44A4.12,4.12,0,0,1,31.92,6.68Z" transform="translate(0 -1.16)"/><path class="cls-2" d="M37.31,1.16h1.5V2.58l-.09.77h0a1.91,1.91,0,0,1,1.38-.58c1,0,1.38.7,1.38,1.78V7.24H40V4.74c0-.49-.13-.7-.51-.7a1,1,0,0,0-.7.34V7.24h-1.5Z" transform="translate(0 -1.16)"/><path class="cls-2" d="M42.45,6c0-1,.77-1.48,2.76-1.59-.05-.31-.35-.45-.84-.45a3,3,0,0,0-1.25.36l-.53-1a4.24,4.24,0,0,1,2.08-.58,1.82,1.82,0,0,1,2,2V7.24H45.49l-.1-.45h0a2.59,2.59,0,0,1-1.48.55A1.32,1.32,0,0,1,42.45,6Zm2.76-.14V5.3c-1.06,0-1.32.28-1.32.58s.15.31.47.31A1.41,1.41,0,0,0,45.21,5.86Z" transform="translate(0 -1.16)"/></g></g></svg>