<svg xmlns="http://www.w3.org/2000/svg" viewBox="0 0 49.47 41.69"><defs><style>.cls-1{fill:#5e5e5e;}.cls-2{fill:#fff;}</style></defs><g id="Layer_2" data-name="Layer 2"><g id="Layer_1-2" data-name="Layer 1"><path class="cls-1" d="M26.23,11.63c-.09.39-.15.8-.27,1.19a79.4,79.4,0,0,1-7.11,14.65,14.06,14.06,0,0,1-1.57,2.05c-1,1-1.94.65-2.2-.91s-.38-3-.58-4.55A2.72,2.72,0,0,0,13.57,22c-.35.41-.76.75-1.08,1.19-.65,1-1.31,2-1.88,3.05-2.2,4.1-4.39,8.23-6.68,12.58,1.65-.55,2.51-2.55,4.12-2.58l.19.33a3.86,3.86,0,0,1-.64,1C5.7,39.26,3.77,41,1.84,42.82c-.41.37-.93.8-1.36.28A2.68,2.68,0,0,1,0,41.66c0-1.3,0-2.64,0-3.95a3.27,3.27,0,0,1,.09-1A2.74,2.74,0,0,1,.69,36c.22.25.57.46.62.73a13.35,13.35,0,0,1,.21,2.11c0,.24.06.51.1,1.16.72-1.43,1.31-2.55,1.87-3.66C5.37,32.66,7.22,29,9.13,25.37A34.32,34.32,0,0,1,11.28,22a6.16,6.16,0,0,1,1.24-1.31,1.6,1.6,0,0,1,2.68.77,19,19,0,0,1,.92,3.43c.2.94.23,1.9.39,3.26.59-.8,1-1.28,1.36-1.83A83.82,83.82,0,0,0,24,15.12c.46-1,.92-1.9,1.41-2.83a6.32,6.32,0,0,1,.7-.85C26.08,11.51,26.17,11.57,26.23,11.63Z" transform="translate(0 -1.65)"/><path class="cls-2" d="M8.75,1.77h1.72l1.07,2.85.52,1.44h0a22.73,22.73,0,0,1-.23-2.44V1.77h1.61V8.16H11.77L10.69,5.3l-.52-1.43h0a23.45,23.45,0,0,1,.24,2.44V8.16H8.75Z" transform="translate(0 -1.65)"/><path class="cls-2" d="M16,1.77h2L20,8.16H18.18l-.72-3.11c-.14-.61-.32-1.38-.46-2h0c-.14.65-.31,1.42-.44,2L15.8,8.16H14.06ZM15.45,5.5h3.11V6.8H15.45Z" transform="translate(0 -1.65)"/><path class="cls-2" d="M22.07,3.18H20.23V1.77H25.6V3.18H23.76v5H22.07Z" transform="translate(0 -1.65)"/><path class="cls-2" d="M27.79,1.77h2.05l1.93,6.39H30l-.72-3.11c-.14-.61-.32-1.38-.46-2h0c-.14.65-.31,1.42-.44,2L27.6,8.16H25.87ZM27.25,5.5h3.11V6.8H27.25Z" transform="translate(0 -1.65)"/><path class="cls-2" d="M32.2,7.37l1-1.17a2.78,2.78,0,0,0,1.64.62c.51,0,.71-.16.71-.37,0-.37-.34-.45-.93-.7l-.8-.33a1.89,1.89,0,0,1-1.34-1.78,2.18,2.18,0,0,1,2.44-2,3.2,3.2,0,0,1,2.18.85l-.84,1.07a2.32,2.32,0,0,0-1.44-.47c-.38,0-.63.14-.63.44s.36.4,1,.64l.74.3a1.78,1.78,0,0,1,1.35,1.75c0,1.09-.91,2-2.56,2A3.85,3.85,0,0,1,32.2,7.37Z" transform="translate(0 -1.65)"/><path class="cls-2" d="M38.24,1.77h1.69V4.15h1.38V1.77H43V8.16H41.31V5.62H39.93V8.16H38.24Z" transform="translate(0 -1.65)"/><path class="cls-2" d="M45.5,1.77h2l1.93,6.39H47.68L47,5.05c-.13-.61-.32-1.38-.46-2h0c-.14.65-.3,1.42-.44,2L45.3,8.16H43.57ZM45,5.5h3.11V6.8H45Z" transform="translate(0 -1.65)"/></g></g></svg>