<svg xmlns="http://www.w3.org/2000/svg" viewBox="0 0 24 23.4"><g id="Layer_2" data-name="Layer 2"><g id="Layer_1-2" data-name="Layer 1"><path d="M10.55,9.41c0,1.48-1.18,1.93-2.57,1.93-.55,0-.77,0-1.05,0V7.56c.18,0,.65,0,1.23,0C9.69,7.53,10.55,8.23,10.55,9.41Z" fill="#ffffff"/><path d="M19.75,0H4.25A4.25,4.25,0,0,0,0,4.25v14.9A4.25,4.25,0,0,0,4.25,23.4h15.5A4.25,4.25,0,0,0,24,19.15V4.25A4.25,4.25,0,0,0,19.75,0ZM8,13.06H6.93v3.32c0,.09,0,.13-.14.13H5.05c-.09,0-.13,0-.13-.11V6c0-.08,0-.13.11-.13.63,0,1.86,0,3.08,0,3.22,0,4.42,1.75,4.42,3.53C12.53,11.94,10.49,13.06,8,13.06Zm10.66-3a.11.11,0,0,1-.12.12H16.89V14c0,.71.23,1.05.95,1.05a2.79,2.79,0,0,0,.63-.06c.05,0,.1,0,.1.1v1.16c0,.1,0,.17-.1.2a3.94,3.94,0,0,1-1.41.23c-1.37,0-2.18-.65-2.18-2.26V10.16H13.83a.13.13,0,0,1-.12-.15V8.65c0-.1,0-.13.14-.13h1a18.27,18.27,0,0,1,.17-2c0-.08,0-.13.13-.14l1.68-.23c.09,0,.12,0,.12.08,0,.54-.08,1.49-.08,2.29h1.61c.08,0,.12,0,.12.11Z" fill="#ffffff"/></g></g></svg>