<svg xmlns="http://www.w3.org/2000/svg" viewBox="0 0 24 23.4"><g id="Layer_2" data-name="Layer 2"><g id="Layer_1-2" data-name="Layer 1"><path d="M11,11.05c0,2.46-1.58,3.79-3.92,3.79H5.93V7.56c.4,0,.76,0,1.23,0C9.4,7.53,11,8.7,11,11.05Z " fill="#ffffff"/><path d="M19.75,0H4.25A4.25,4.25,0,0,0,0,4.25v14.9A4.25,4.25,0,0,0,4.25,23.4h15.5A4.25,4.25,0,0,0,24,19.15V4.25A4.25,4.25,0,0,0,19.75,0ZM7.14,16.55c-1,0-2.58,0-3.11,0-.07,0-.11,0-.11-.14V6c0-.08,0-.11.11-.13.48,0,1.61,0,3.14,0,3.91,0,5.88,2.15,5.88,5.17C13.05,15,10,16.55,7.14,16.55Zm9.67.13a5.16,5.16,0,0,1-2.35-.46c-.08,0-.12-.08-.12-.18V14.5c0-.08.07-.11.14-.08a4.55,4.55,0,0,0,2.38.65c.86,0,1.28-.29,1.28-.71s-.32-.67-1.35-1.07c-1.81-.65-2.46-1.38-2.46-2.55s1-2.38,3.11-2.38a5.33,5.33,0,0,1,2.09.32.18.18,0,0,1,.1.19V10.3c0,.08-.05.13-.15.1a4.73,4.73,0,0,0-2.08-.47c-.88,0-1.18.36-1.18.7s.25.6,1.32,1c1.89.68,2.54,1.41,2.54,2.57C20.08,15.72,18.85,16.68,16.81,16.68Z" fill="#ffffff"/></g></g></svg>